HIERARCHY
ROOT SimulationBone
{
	OFFSET 0.000000 0.000000 0.000000
	CHANNELS 6 Xposition Yposition Zposition Zrotation Yrotation Xrotation 
	JOINT Hips
	{
		OFFSET 0.000000 0.000000 0.000000
		CHANNELS 6 Xposition Yposition Zposition Zrotation Yrotation Xrotation 
		JOINT LeftUpLeg
		{
			OFFSET 0.103462 1.857825 10.548491
			CHANNELS 3 Zrotation Yrotation Xrotation
			JOINT LeftLeg
			{
				OFFSET 43.500000 -0.000038 -0.000006
				CHANNELS 3 Zrotation Yrotation Xrotation
				JOINT LeftFoot
				{
					OFFSET 42.372196 0.000034 -0.000012
					CHANNELS 3 Zrotation Yrotation Xrotation
					JOINT LeftToe
					{
						OFFSET 17.299999 -0.000001 -0.000008
						CHANNELS 3 Zrotation Yrotation Xrotation
						End Site
						{
							OFFSET 0.000000 0.000000 0.000000
						}
					}
				}
			}
		}
		JOINT RightUpLeg
		{
			OFFSET 0.103456 1.857821 -10.548490
			CHANNELS 3 Zrotation Yrotation Xrotation
			JOINT RightLeg
			{
				OFFSET 43.500038 -0.000011 0.000011
				CHANNELS 3 Zrotation Yrotation Xrotation
				JOINT RightFoot
				{
					OFFSET 42.372265 0.000004 0.000029
					CHANNELS 3 Zrotation Yrotation Xrotation
					JOINT RightToe
					{
						OFFSET 17.299988 -0.000007 0.000004
						CHANNELS 3 Zrotation Yrotation Xrotation
						End Site
						{
							OFFSET 0.000000 0.000000 0.000000
						}
					}
				}
			}
		}
		JOINT Spine
		{
			OFFSET 6.901963 -2.603729 -0.000012
			CHANNELS 3 Zrotation Yrotation Xrotation
			JOINT Spine1
			{
				OFFSET 12.588106 0.000010 0.000003
				CHANNELS 3 Zrotation Yrotation Xrotation
				JOINT Spine2
				{
					OFFSET 12.343199 -0.000001 -0.000002
					CHANNELS 3 Zrotation Yrotation Xrotation
					JOINT Neck
					{
						OFFSET 25.832895 -0.000006 0.000023
						CHANNELS 3 Zrotation Yrotation Xrotation
						JOINT Head
						{
							OFFSET 11.766605 0.000011 -0.000027
							CHANNELS 3 Zrotation Yrotation Xrotation
							End Site
							{
								OFFSET 0.000000 0.000000 0.000000
							}
						}
					}
					JOINT LeftShoulder
					{
						OFFSET 19.745903 -1.480368 6.000127
						CHANNELS 3 Zrotation Yrotation Xrotation
						JOINT LeftArm
						{
							OFFSET 11.284108 0.000010 -0.000010
							CHANNELS 3 Zrotation Yrotation Xrotation
							JOINT LeftForeArm
							{
								OFFSET 33.000069 0.000000 0.000030
								CHANNELS 3 Zrotation Yrotation Xrotation
								JOINT LeftHand
								{
									OFFSET 25.199997 0.000019 0.000001
									CHANNELS 3 Zrotation Yrotation Xrotation
									End Site
									{
										OFFSET 0.000000 0.000000 0.000000
									}
								}
							}
						}
					}
					JOINT RightShoulder
					{
						OFFSET 19.746101 -1.480371 -6.000072
						CHANNELS 3 Zrotation Yrotation Xrotation
						JOINT RightArm
						{
							OFFSET 11.284140 -0.000007 -0.000004
							CHANNELS 3 Zrotation Yrotation Xrotation
							JOINT RightForeArm
							{
								OFFSET 33.000080 0.000016 -0.000002
								CHANNELS 3 Zrotation Yrotation Xrotation
								JOINT RightHand
								{
									OFFSET 25.199766 0.000146 0.000422
									CHANNELS 3 Zrotation Yrotation Xrotation
									End Site
									{
										OFFSET 0.000000 0.000000 0.000000
									}
								}
							}
						}
					}
				}
			}
		}
	}
}
MOTION
Frames: 14
Frame Time: 0.033333
355.467635 0.000000 96.559160 180.000000 83.045338 180.000000 1.549917 84.400459 -1.068436 97.992358 -2.095405 -178.355084 -154.894975 7.787895 175.791256 -22.206188 -2.930607 -1.090120 80.585652 2.114355 5.200164 21.454543 0.003087 -0.000000 152.754531 -2.062097 -169.564009 -26.546539 0.713802 4.991073 65.604158 -6.669909 -7.880709 21.454555 -0.003109 -0.000018 9.496251 0.037373 -2.482825 8.973940 0.267028 -4.955195 8.657134 0.237267 -4.956699 7.631194 3.170720 -3.697660 -6.733133 11.165184 -6.440978 167.262877 -80.282665 11.355020 -39.194047 48.019464 -2.588135 -40.340699 -17.170259 1.608364 6.270768 -8.213211 34.494064 -157.351972 68.240809 24.744116 3.404882 -59.190815 -31.232082 -31.172140 15.036871 -1.281585 10.414206 4.615715 -9.036552 
354.632149 0.000000 92.813766 180.000000 83.026990 180.000000 1.685875 84.183731 -0.879789 97.706988 -0.719151 -177.792239 -156.664254 5.844099 172.145083 -29.146429 -1.354397 0.938945 75.995362 0.539775 4.030650 21.454555 0.003090 0.000001 152.059805 -2.719105 -171.553752 -31.923355 2.137603 6.642870 67.593806 -7.603352 -7.620191 21.454560 -0.003115 -0.000019 9.436760 0.570460 -2.338588 8.834656 1.317627 -4.627039 8.517590 1.289834 -4.634885 7.372775 3.583261 -4.270581 -7.084261 11.529878 -7.112153 167.502931 -79.544718 11.138173 -38.924387 51.173082 -1.772171 -35.079862 -16.591756 1.439866 8.382286 -8.283162 29.329006 -156.385131 67.965013 25.749410 5.890175 -58.738111 -32.299210 -31.837513 15.265171 -1.309931 10.725478 3.909699 -6.858141 
353.781150 0.000000 89.076639 180.000000 83.013131 180.000000 1.741521 84.064743 -0.722869 97.631640 0.454917 -177.995372 -160.376721 4.067092 170.241359 -39.323817 -0.380620 1.468388 70.107971 -0.725830 0.923763 21.454557 0.003095 -0.000001 152.006324 -2.814094 -168.543947 -37.177614 1.857035 5.279287 72.360773 -6.399725 -8.166546 21.454557 -0.003109 -0.000018 9.423892 0.970007 -2.049580 8.799643 2.092870 -4.020069 8.482187 2.068710 -4.032605 7.867714 4.153108 -4.505510 -7.528692 11.940970 -7.476852 167.163293 -79.387016 11.488695 -38.326097 54.999907 -2.787777 -31.070336 -15.544097 1.285738 11.340996 -7.553511 28.077009 -157.532699 68.164591 24.558708 6.635914 -58.545281 -32.144926 -30.865362 15.296062 -1.292020 11.097002 2.345911 -6.235377 
352.920988 0.000000 85.347948 180.000000 82.994241 180.000000 1.661114 84.388123 -0.383232 97.549615 1.723014 -178.002213 -165.616719 1.035003 168.794479 -51.719104 0.135369 1.830157 65.411533 -3.090499 -4.423183 21.454545 0.003089 -0.000002 153.513201 -3.625008 -167.874930 -39.169776 2.214263 5.092503 75.639236 -5.948663 -8.021944 21.454555 -0.003094 -0.000018 9.411315 1.347139 -1.734832 8.770973 2.821698 -3.363558 8.453043 2.801469 -3.380518 8.203250 4.208103 -4.856399 -7.072378 12.423659 -7.924648 167.062875 -79.280096 11.594519 -36.859601 58.637386 -3.159140 -28.265251 -14.477137 1.163763 13.590927 -5.793585 31.590916 -158.586296 68.755614 23.458898 5.716372 -58.820756 -30.923309 -29.341376 14.838526 -1.232879 11.614558 2.008984 -7.036898 
352.063188 0.000000 81.631215 180.000000 82.973568 180.000000 1.557057 85.023087 -0.107412 97.527353 2.478924 -178.173632 -171.368422 -1.294201 169.463195 -62.436200 -0.051441 1.212906 59.829233 -3.538868 -5.788546 21.454551 0.003091 0.000014 155.863674 -4.381202 -168.325450 -39.635564 2.529172 5.200195 78.244181 -5.613024 -7.277556 21.454562 -0.003100 -0.000017 9.408117 1.544740 -1.314735 8.771892 3.184493 -2.509559 8.453579 3.169435 -2.528741 8.241945 4.115408 -5.359024 -5.961529 12.619014 -8.367742 170.924118 -79.175997 7.676389 -35.106291 61.624637 -0.930344 -26.723182 -14.355758 1.129060 14.675100 -3.952014 35.379799 -159.440193 69.173212 22.569901 3.357655 -59.136440 -29.699425 -27.314360 14.387276 -1.167069 12.000573 2.444277 -7.338948 
351.223914 0.000000 77.930301 180.000000 82.949719 180.000000 1.442628 85.906799 0.150798 97.520773 3.027132 -178.565355 -177.643508 -2.978394 170.042204 -70.870678 0.613314 1.227029 61.069725 -3.014141 -4.667211 21.454551 0.003092 0.000005 158.984660 -5.236099 -169.379580 -38.553505 2.829480 5.429393 79.999977 -5.467230 -6.571203 21.454558 -0.003107 -0.000018 9.379408 1.636685 -0.823204 8.727504 3.330627 -1.521274 8.408951 3.321510 -1.541370 8.761908 3.793518 -5.719487 -5.321052 12.974707 -8.804323 176.144882 -78.614002 2.384212 -30.796739 63.896679 3.150952 -26.786349 -14.275252 1.124976 14.409121 -3.930937 41.810918 -161.118289 69.386307 20.834109 1.489567 -59.238449 -28.258875 -26.282754 14.074292 -1.129450 11.808037 4.017035 -8.228572 
350.402658 0.000000 74.237839 180.000000 82.916039 180.000000 1.208437 86.926666 0.298546 97.526661 3.142934 -179.063250 176.007459 -3.893400 170.921359 -76.723843 1.381254 0.336925 64.758335 -1.841327 -3.766950 21.454555 0.003091 0.000005 162.580277 -5.572697 -170.328553 -36.456360 3.047746 5.376196 81.098579 -5.233273 -6.049512 21.454558 -0.003105 -0.000018 9.351251 1.587929 -0.309296 8.686049 3.194457 -0.498779 8.367437 3.191527 -0.518074 9.546123 3.210274 -6.028644 -4.858835 13.020236 -9.161443 -179.667812 -77.847190 -1.863178 -24.128348 65.352766 9.023121 -27.955951 -14.288839 1.146147 13.046682 -4.603085 46.886209 -162.098790 69.853690 19.816493 -0.081327 -59.717539 -26.892284 -26.860033 14.050619 -1.137684 11.304334 7.469920 -7.401058 
349.590218 0.000000 70.545216 180.000000 82.853832 180.000000 1.053133 87.856689 0.312015 97.656579 2.924525 -179.818348 170.329577 -4.166200 172.572502 -79.414814 1.355851 -1.205752 65.414880 -0.659470 -3.718165 21.454550 0.003081 -0.000000 166.430919 -5.511403 -171.598326 -34.158548 3.238996 5.287142 82.128899 -4.999989 -5.585088 21.454555 -0.003111 -0.000017 9.352680 1.431165 0.165303 8.700623 2.845763 0.437825 8.382109 2.848501 0.420621 10.339674 2.058318 -6.180157 -4.616971 13.455021 -9.520117 -175.178889 -77.311239 -6.431812 -16.304490 66.319928 15.878062 -29.575928 -14.401631 1.183157 12.158960 -5.630957 45.772458 -163.799712 70.457506 18.056189 -1.965632 -60.056890 -25.074043 -28.250733 14.027873 -1.160708 10.859127 11.573124 -5.433591 
348.795359 0.000000 66.845626 180.000000 82.787796 180.000000 0.886998 88.591179 0.315105 97.613491 2.722690 179.317773 165.030703 -4.531501 173.806854 -79.330352 1.604415 -2.584092 65.070003 -0.105871 -4.868713 21.454555 0.003099 -0.000004 170.076601 -5.449709 -172.723955 -31.797567 3.189155 5.136146 83.080625 -4.736830 -5.155258 21.454557 -0.003111 -0.000016 9.317147 1.265251 0.591535 8.637315 2.482779 1.276064 8.318988 2.490565 1.261067 11.033270 0.567262 -6.214648 -4.420144 13.610150 -9.701510 -170.431634 -76.997706 -11.272887 -8.703902 66.980974 23.150332 -30.775886 -14.817349 1.233165 12.136630 -5.945361 40.407047 -164.692404 71.660992 17.127113 -4.807197 -60.633966 -22.740186 -29.958948 14.243417 -1.206544 10.499788 13.291451 -4.869144 
348.013169 0.000000 63.137248 180.000000 82.793831 180.000000 0.725615 88.998016 0.263035 97.684263 2.478558 178.581170 160.543118 -4.643595 174.995867 -76.729689 1.810344 -3.946412 65.107658 1.144860 -4.270639 21.454545 0.003092 -0.000003 173.537116 -5.018397 -173.678747 -30.033366 3.409312 4.890047 84.367255 -4.440038 -4.889443 21.454560 -0.003107 -0.000019 9.348778 1.084096 0.931918 8.703946 2.095005 1.943011 8.385825 2.106834 1.930330 11.363234 -1.008956 -6.123375 -3.868081 13.694631 -9.674245 -167.431487 -76.652399 -14.335293 -1.314162 66.940089 29.714820 -31.962512 -15.386340 1.293857 13.165132 -4.701382 35.270578 -166.412600 72.510593 15.353306 -8.740190 -60.202858 -20.058174 -31.873761 14.739599 -1.276906 10.455571 12.383682 -5.559268 
347.254578 0.000000 59.415708 180.000000 82.885769 180.000000 0.606493 89.151817 0.248658 97.787011 2.273866 178.299061 156.749276 -4.602019 176.959833 -72.098719 1.626297 -5.011898 66.701141 2.080669 -4.084825 21.454553 0.003081 0.000001 176.915560 -4.462604 -174.198073 -28.566330 3.776100 4.618242 85.903767 -4.144502 -4.715369 21.454562 -0.003112 -0.000018 9.402858 0.934227 1.144356 8.812270 1.778572 2.356725 8.494294 1.792899 2.345964 11.400879 -2.285184 -6.051820 -2.998033 13.532807 -9.538474 -165.655009 -76.487805 -16.149989 5.143990 66.778281 33.203964 -32.646412 -15.037845 1.285780 13.413739 -3.391455 31.857307 -168.143316 73.414589 13.573202 -13.612331 -59.278187 -16.040238 -33.608660 14.786161 -1.317042 9.961838 9.996752 -7.461147 
346.510072 0.000000 55.684287 180.000000 83.036342 180.000000 0.413542 89.045792 0.277003 97.968455 2.270801 178.201784 153.917685 -4.627301 178.466190 -64.817170 1.709882 -5.896342 66.664094 3.075520 -3.220381 21.454550 0.003085 0.000002 -179.807353 -4.116193 -174.958847 -27.327882 4.288359 4.590284 87.536463 -4.018487 -4.512924 21.454555 -0.003115 -0.000018 9.505638 0.838779 1.319080 9.017839 1.572214 2.699702 8.699991 1.588598 2.690173 12.016057 -3.237827 -6.161323 -3.290034 13.063806 -9.638111 -165.636513 -76.428499 -16.169197 9.533273 66.596926 35.785455 -32.159430 -15.055204 1.276647 13.145695 -1.979361 29.235385 -170.305112 74.101398 11.356200 -18.512801 -57.497898 -12.238201 -35.172028 14.594297 -1.339900 9.252681 7.564613 -8.856948 
345.775872 0.000000 51.948599 180.000000 83.216059 180.000000 0.228236 88.823334 0.391034 98.079499 2.429499 178.555954 152.575388 -4.866700 -179.850642 -54.663370 1.668514 -6.604283 66.153715 3.017062 -4.815099 21.454548 0.003097 0.000000 -176.312686 -4.162096 -176.092208 -25.453545 4.817195 5.063634 88.912233 -4.226741 -4.177177 21.454562 -0.003121 -0.000018 9.628653 0.823211 1.408196 9.264532 1.531007 2.877992 8.946757 1.548494 2.868705 12.229931 -3.932538 -6.171254 -3.175582 12.796698 -9.612684 -165.818497 -76.217384 -15.984413 11.180538 66.410039 36.529672 -31.002338 -14.901683 1.243106 13.424529 -0.264303 29.037876 -172.401624 74.336712 9.208389 -23.140485 -54.636268 -9.814227 -36.148677 14.341152 -1.346355 8.162689 6.170570 -9.483326 
345.054032 0.000000 48.204542 180.000000 83.404540 180.000000 0.039544 88.437172 0.581771 98.026658 2.783740 179.193097 152.664072 -5.064309 -178.896123 -41.320694 2.094241 -6.488663 64.395037 3.129201 -4.223089 21.454553 0.003086 -0.000002 -172.764594 -4.507994 -176.800430 -23.168200 5.212386 5.464011 90.096554 -4.402325 -3.863675 21.454555 -0.003092 -0.000016 9.732765 0.859696 1.486861 9.474805 1.594696 3.039362 9.157068 1.613146 3.029694 12.120357 -3.931381 -6.218696 -2.705292 12.412150 -9.516112 -166.443609 -76.195213 -15.345907 11.330967 66.427442 36.812210 -29.448326 -14.701118 1.199964 13.103988 0.702975 29.445878 -173.109396 74.370119 8.483512 -27.421340 -51.599207 -8.231091 -36.926653 14.341871 -1.365061 7.574846 6.005185 -10.289483 
